<svg width="64" height="64" viewBox="0 0 64 64" fill="none" xmlns="http://www.w3.org/2000/svg">
<g id="books">
<path id="Vector" d="M11.5202 19.8392H13.4402V23.6792H4.48021C3.97461 23.6792 3.51381 23.98 3.30901 24.4408C3.10421 24.908 3.19381 25.4456 3.53301 25.8232C6.73301 29.3432 6.73301 34.6552 3.53301 38.1752C3.19381 38.5528 3.10421 39.0904 3.30901 39.5576C3.51381 40.0184 3.97461 40.3192 4.48021 40.3192H52.4802C57.069 40.3192 60.8002 36.588 60.8002 31.9992C60.8002 27.4104 57.069 23.6792 52.4802 23.6792H26.2402V19.8392H59.5202C60.0258 19.8392 60.4866 19.5384 60.6914 19.0776C60.8962 18.6104 60.8066 18.0728 60.4674 17.6952C57.2674 14.1752 57.2674 8.86322 60.4674 5.34322C60.8066 4.96562 60.8962 4.42802 60.6914 3.96082C60.5904 3.73444 60.4261 3.5421 60.2183 3.40697C60.0105 3.27184 59.7681 3.19969 59.5202 3.19922H11.5202C6.93141 3.19922 3.20021 6.93042 3.20021 11.5192C3.20021 16.108 6.93141 19.8392 11.5202 19.8392ZM52.4802 26.2392C55.6546 26.2392 58.2402 28.8248 58.2402 31.9992C58.2402 35.1736 55.6546 37.7592 52.4802 37.7592H6.98261C7.97684 36.0023 8.49937 34.0179 8.49937 31.9992C8.49937 29.9805 7.97684 27.9961 6.98261 26.2392H13.4402V31.3592C13.4402 31.5969 13.5064 31.8299 13.6314 32.0322C13.7564 32.2344 13.9352 32.3978 14.1478 32.5041C14.3604 32.6104 14.5984 32.6554 14.8352 32.634C15.0719 32.6127 15.298 32.5258 15.4882 32.3832L19.8402 29.1192L24.1922 32.3832C24.4162 32.5496 24.6914 32.6392 24.9602 32.6392C25.2997 32.6392 25.6253 32.5044 25.8653 32.2643C26.1054 32.0243 26.2402 31.6987 26.2402 31.3592V26.2392H52.4802ZM16.0002 28.7992V13.4392H23.6802V28.7992L20.6082 26.4952C20.3778 26.3224 20.109 26.2392 19.8402 26.2392C19.5714 26.2392 19.3026 26.3224 19.0722 26.4952L16.0002 28.7992ZM11.5202 5.75922H57.0178C56.0236 7.51614 55.501 9.50049 55.501 11.5192C55.501 13.5379 56.0236 15.5223 57.0178 17.2792H26.2402V12.1592C26.2402 11.4552 25.6642 10.8792 24.9602 10.8792H14.7202C14.0162 10.8792 13.4402 11.4552 13.4402 12.1592V17.2792H11.5202C8.34581 17.2792 5.76021 14.6936 5.76021 11.5192C5.76021 8.34482 8.34581 5.75922 11.5202 5.75922ZM60.6914 44.9208C60.5904 44.6944 60.4261 44.5021 60.2183 44.367C60.0105 44.2318 59.7681 44.1597 59.5202 44.1592H11.5202C6.93141 44.1592 3.20021 47.8904 3.20021 52.4792C3.20021 57.068 6.93141 60.7992 11.5202 60.7992H59.5202C60.0258 60.7992 60.4866 60.4984 60.6914 60.0376C60.8962 59.5704 60.8066 59.0328 60.4674 58.6552C57.2674 55.1352 57.2674 49.8232 60.4674 46.3032C60.8066 45.9256 60.8962 45.388 60.6914 44.9208ZM57.0178 58.2392H11.5202C8.34581 58.2392 5.76021 55.6536 5.76021 52.4792C5.76021 49.3048 8.34581 46.7192 11.5202 46.7192H57.0178C56.0236 48.4761 55.501 50.4605 55.501 52.4792C55.501 54.4979 56.0236 56.4823 57.0178 58.2392Z" fill="#FFCC01"/>
</g>
</svg>
