<svg width="64" height="64" viewBox="0 0 64 64" fill="none" xmlns="http://www.w3.org/2000/svg">
<g id="class 1">
<path id="Vector" d="M37.7619 10.0253C37.7369 12.4253 36.2369 14.6753 33.9244 15.4628C31.6244 16.2503 29.0869 15.5503 27.5244 13.6878C25.9744 11.8253 25.8119 9.11282 27.0494 7.05032C28.2994 5.00032 30.7744 3.87532 33.1244 4.36282C35.8119 4.92532 37.7244 7.28782 37.7619 10.0253C37.7744 11.2253 39.6494 11.2378 39.6369 10.0253C39.5994 6.81282 37.5994 3.96282 34.5869 2.83782C31.6369 1.75032 28.1619 2.70032 26.1619 5.10032C24.0994 7.57532 23.7744 11.1628 25.4494 13.9378C27.0994 16.6878 30.3244 18.0753 33.4619 17.5128C37.0494 16.8628 39.5994 13.6003 39.6494 10.0128C39.6494 8.81282 37.7744 8.81282 37.7619 10.0253ZM20.2119 25.7503C22.7119 23.3128 25.8244 21.5878 29.2869 20.9878C32.5244 20.4253 35.9369 20.9378 38.8994 22.3503C40.7119 23.2128 42.3494 24.3753 43.7869 25.7628C44.6619 26.6003 45.9869 25.2753 45.1119 24.4378C42.3744 21.8003 38.9369 19.8753 35.1744 19.2003C31.4869 18.5378 27.7244 19.0378 24.3369 20.6128C22.3119 21.5503 20.4869 22.8878 18.8869 24.4378C18.0244 25.2628 19.3494 26.5878 20.2119 25.7503ZM8.97436 39.5628C8.97436 37.2503 8.97436 34.9378 8.97436 32.6253C8.97436 31.8753 8.77436 30.7753 9.09936 30.0628C9.49936 29.1628 10.5369 28.9003 11.4244 28.9003C15.0369 28.8878 18.6619 28.9003 22.2744 28.9003C28.3244 28.9003 34.3869 28.9003 40.4369 28.9003C44.5744 28.9003 48.7119 28.9003 52.8494 28.9003C53.0744 28.9003 53.2994 28.9003 53.5244 28.9003C54.3744 28.9128 55.3369 29.2753 55.6869 30.1253C55.8119 30.4253 55.7869 30.7503 55.7869 31.0753C55.7869 33.6753 55.7869 36.2753 55.7869 38.8753C55.7869 39.1128 55.7869 39.3378 55.7869 39.5753C55.7869 40.7878 57.6619 40.7878 57.6619 39.5753C57.6619 37.1753 57.6619 34.7753 57.6619 32.3753C57.6619 31.3503 57.7869 30.2253 57.3494 29.2628C56.6619 27.7753 55.0244 27.0378 53.4494 27.0253C49.9119 27.0003 46.3619 27.0253 42.8244 27.0253C36.5744 27.0253 30.3369 27.0253 24.0869 27.0253C19.9619 27.0253 15.8244 27.0253 11.6994 27.0253C11.0994 27.0253 10.4869 27.0378 9.89936 27.2128C8.17436 27.7253 7.08686 29.1503 7.08686 30.9378C7.08686 33.5753 7.08686 36.2003 7.08686 38.8378C7.08686 39.0878 7.08686 39.3253 7.08686 39.5753C7.09936 40.7753 8.97436 40.7753 8.97436 39.5628ZM14.9494 48.5128C14.9244 50.0753 13.9744 51.5003 12.4994 52.0503C10.9869 52.6128 9.26186 52.1378 8.24936 50.8878C6.09936 48.2378 8.49936 44.1753 11.8619 44.8128C13.6494 45.1503 14.9119 46.7003 14.9494 48.5128C14.9744 49.7128 16.8494 49.7253 16.8244 48.5128C16.7869 46.1253 15.3244 44.0253 13.0744 43.2003C10.8744 42.3878 8.28686 43.1253 6.82436 44.9503C5.34936 46.7503 5.12436 49.3378 6.31186 51.3628C7.52436 53.4378 9.93686 54.4753 12.2744 54.0503C14.9244 53.5628 16.7744 51.1503 16.8244 48.5128C16.8369 47.3128 14.9619 47.3128 14.9494 48.5128ZM3.09936 59.7503C5.28686 57.6253 8.14936 56.3003 11.2244 56.3378C14.2494 56.3628 17.0869 57.6753 19.2494 59.7503C20.1244 60.5878 21.4494 59.2628 20.5744 58.4253C18.0494 56.0128 14.7369 54.4878 11.2244 54.4628C7.66186 54.4378 4.31186 55.9628 1.77436 58.4253C0.911858 59.2628 2.23686 60.5878 3.09936 59.7503ZM35.7619 48.5128C35.7369 50.0753 34.7869 51.5003 33.3119 52.0503C31.7994 52.6128 30.0744 52.1378 29.0619 50.8878C26.9119 48.2378 29.3119 44.1753 32.6744 44.8128C34.4744 45.1503 35.7369 46.7003 35.7619 48.5128C35.7869 49.7128 37.6619 49.7253 37.6369 48.5128C37.5994 46.1253 36.1369 44.0253 33.8869 43.2003C31.6869 42.3878 29.0994 43.1253 27.6369 44.9503C26.1744 46.7628 25.9494 49.3503 27.1244 51.3628C28.3369 53.4378 30.7494 54.4753 33.0869 54.0503C35.7369 53.5628 37.5869 51.1503 37.6369 48.5128C37.6619 47.3128 35.7869 47.3128 35.7619 48.5128ZM23.9244 59.7503C26.1119 57.6253 28.9744 56.3003 32.0494 56.3378C35.0744 56.3628 37.9119 57.6753 40.0744 59.7503C40.9494 60.5878 42.2744 59.2628 41.3994 58.4253C38.8744 56.0128 35.5619 54.4878 32.0494 54.4628C28.4869 54.4378 25.1369 55.9628 22.5994 58.4253C21.7244 59.2628 23.0494 60.5878 23.9244 59.7503ZM56.5869 48.5128C56.5619 50.0753 55.6119 51.5003 54.1369 52.0503C52.6244 52.6128 50.8994 52.1378 49.8869 50.8878C47.7369 48.2378 50.1369 44.1753 53.4994 44.8128C55.2994 45.1503 56.5494 46.7003 56.5869 48.5128C56.6119 49.7128 58.4869 49.7253 58.4619 48.5128C58.4244 46.1253 56.9619 44.0253 54.7119 43.2003C52.5119 42.3878 49.9244 43.1253 48.4619 44.9503C46.9994 46.7628 46.7744 49.3503 47.9494 51.3628C49.1619 53.4378 51.5744 54.4753 53.9119 54.0503C56.5619 53.5628 58.4119 51.1503 58.4619 48.5128C58.4869 47.3128 56.6119 47.3128 56.5869 48.5128ZM44.7369 59.7503C46.9244 57.6253 49.7869 56.3003 52.8619 56.3378C55.8869 56.3628 58.7244 57.6753 60.8869 59.7503C61.7619 60.5878 63.0869 59.2628 62.2119 58.4253C59.6869 56.0128 56.3744 54.4878 52.8619 54.4628C49.2994 54.4378 45.9494 55.9628 43.4119 58.4253C42.5494 59.2628 43.8744 60.5878 44.7369 59.7503Z" fill="#FFCC01"/>
</g>
</svg>
