<svg width="64" height="64" viewBox="0 0 64 64" fill="none" xmlns="http://www.w3.org/2000/svg">
<g id="feedback" clip-path="url(#clip0_703_53555)">
<path id="Vector" d="M18.3125 56.457H6.5625C6.31386 56.457 6.0754 56.5558 5.89959 56.7316C5.72377 56.9074 5.625 57.1459 5.625 57.3945C5.625 57.6432 5.72377 57.8816 5.89959 58.0574C6.0754 58.2333 6.31386 58.332 6.5625 58.332H18.3125C18.5611 58.332 18.7996 58.2333 18.9754 58.0574C19.1512 57.8816 19.25 57.6432 19.25 57.3945C19.25 57.1459 19.1512 56.9074 18.9754 56.7316C18.7996 56.5558 18.5611 56.457 18.3125 56.457ZM28.4095 61.8679L24.875 58.8384V48.0255C24.8741 47.2799 24.5775 46.565 24.0503 46.0377C23.523 45.5105 22.8082 45.2139 22.0625 45.213H2.8125C2.06684 45.2139 1.35197 45.5105 0.824712 46.0377C0.297453 46.565 0.000860158 47.2799 0 48.0255L0 61.1445C0.000860158 61.8902 0.297453 62.6051 0.824712 63.1323C1.35197 63.6596 2.06684 63.9562 2.8125 63.957H27.6367C27.8794 63.957 28.1162 63.8827 28.3153 63.744C28.5144 63.6054 28.6663 63.4091 28.7504 63.1815C28.8346 62.9539 28.8471 62.706 28.7861 62.4712C28.7252 62.2364 28.5937 62.0258 28.4095 61.8679ZM2.8125 62.082C2.56394 62.0818 2.32564 61.9829 2.14988 61.8071C1.97412 61.6314 1.87526 61.3931 1.875 61.1445V48.0255C1.87526 47.777 1.97412 47.5387 2.14988 47.3629C2.32564 47.1872 2.56394 47.0883 2.8125 47.088H22.0625C22.3111 47.0883 22.5494 47.1872 22.7251 47.3629C22.9009 47.5387 22.9997 47.777 23 48.0255V59.2695C23 59.4048 23.0293 59.5384 23.0858 59.6613C23.1424 59.7841 23.2248 59.8933 23.3275 59.9813L25.7782 62.082H2.8125ZM48.4345 32.7724C45.3559 32.7724 42.3465 33.6853 39.7868 35.3957C37.2271 37.106 35.232 39.537 34.0539 42.3812C32.8757 45.2254 32.5675 48.3551 33.1681 51.3745C33.7687 54.3939 35.2511 57.1674 37.428 59.3443C39.6048 61.5212 42.3783 63.0037 45.3977 63.6043C48.4171 64.2049 51.5468 63.8967 54.3911 62.7186C57.2353 61.5405 59.6663 59.5454 61.3767 56.9857C63.0871 54.426 64 51.4166 64 48.338C63.9954 44.2112 62.354 40.2547 59.4359 37.3366C56.5178 34.4185 52.5613 32.7771 48.4345 32.7724ZM48.4345 62.0287C45.6169 62.0317 42.8677 61.1605 40.5661 59.5352C41.0315 57.8041 42.0548 56.2749 43.4773 55.1842C44.8998 54.0936 46.6423 53.5025 48.4348 53.5024C50.2273 53.5023 51.9698 54.0933 53.3924 55.1838C54.8151 56.2743 55.8384 57.8034 56.304 59.5344C54.0022 61.1602 51.2526 62.0317 48.4345 62.0285V62.0287ZM44.3442 47.5365C44.3442 46.7276 44.5841 45.9367 45.0335 45.2641C45.4829 44.5914 46.1217 44.0671 46.8691 43.7575C47.6165 43.4479 48.439 43.3669 49.2324 43.5247C50.0258 43.6825 50.7547 44.0721 51.3267 44.6441C51.8987 45.2161 52.2883 45.945 52.4461 46.7384C52.604 47.5318 52.523 48.3542 52.2134 49.1016C51.9038 49.849 51.3796 50.4879 50.7069 50.9373C50.0343 51.3868 49.2435 51.6267 48.4345 51.6267C47.3501 51.6254 46.3105 51.1941 45.5437 50.4273C44.7768 49.6606 44.3455 48.6209 44.3442 47.5365ZM57.8669 58.2517C57.3776 56.8983 56.6034 55.6658 55.5966 54.6376C54.5899 53.6094 53.374 52.8093 52.0312 52.2917C53.0288 51.5377 53.7642 50.4893 54.1335 49.2946C54.5028 48.0999 54.4873 46.8194 54.0892 45.634C53.6912 44.4486 52.9307 43.4183 51.9152 42.6887C50.8997 41.959 49.6806 41.5669 48.4302 41.5678C47.1797 41.5687 45.9612 41.9625 44.9467 42.6936C43.9323 43.4247 43.1733 44.4561 42.7769 45.6421C42.3805 46.8281 42.3669 48.1086 42.7379 49.3027C43.1089 50.4969 43.8458 51.5442 44.8444 52.2968C43.5015 52.8142 42.2852 53.6137 41.2777 54.6414C40.2703 55.6692 39.4951 56.9011 39.0045 58.254C37.02 56.3685 35.6463 53.9314 35.0608 51.2573C34.4753 48.5833 34.7049 45.7951 35.7199 43.2529C36.7348 40.7106 38.4886 38.531 40.7548 36.9954C43.0209 35.4599 45.6954 34.6389 48.4328 34.6386C51.1702 34.6382 53.8448 35.4585 56.1114 36.9935C58.3779 38.5285 60.1322 40.7076 61.1479 43.2497C62.1635 45.7917 62.3937 48.5798 61.8089 51.254C61.2241 53.9282 59.851 56.3656 57.867 58.2517H57.8669ZM18.3125 50.832H6.5625C6.31386 50.832 6.0754 50.9308 5.89959 51.1066C5.72377 51.2824 5.625 51.5209 5.625 51.7695C5.625 52.0182 5.72377 52.2566 5.89959 52.4324C6.0754 52.6083 6.31386 52.707 6.5625 52.707H18.3125C18.5611 52.707 18.7996 52.6083 18.9754 52.4324C19.1512 52.2566 19.25 52.0182 19.25 51.7695C19.25 51.5209 19.1512 51.2824 18.9754 51.1066C18.7996 50.9308 18.5611 50.832 18.3125 50.832ZM57.4375 11.201H45.6875C45.4389 11.201 45.2004 11.2998 45.0246 11.4756C44.8488 11.6514 44.75 11.8899 44.75 12.1385C44.75 12.3872 44.8488 12.6256 45.0246 12.8014C45.2004 12.9773 45.4389 13.076 45.6875 13.076H57.4375C57.6861 13.076 57.9246 12.9773 58.1004 12.8014C58.2762 12.6256 58.375 12.3872 58.375 12.1385C58.375 11.8899 58.2762 11.6514 58.1004 11.4756C57.9246 11.2998 57.6861 11.201 57.4375 11.201ZM15.5655 -0.0429688C12.4869 -0.0429193 9.47753 0.870026 6.91783 2.58042C4.35812 4.29082 2.36309 6.72184 1.18502 9.56607C0.00694549 12.4103 -0.30126 15.54 0.299376 18.5594C0.900013 21.5788 2.38252 24.3523 4.55941 26.5291C6.73631 28.706 9.50983 30.1884 12.5292 30.789C15.5487 31.3895 18.6783 31.0813 21.5226 29.9031C24.3668 28.725 26.7977 26.7299 28.5081 24.1701C30.2184 21.6104 31.1313 18.601 31.1313 15.5224C31.1266 11.3956 29.4851 7.43915 26.5669 4.52108C23.6488 1.60301 19.6923 -0.0383701 15.5655 -0.0429688ZM15.5655 29.213C12.7479 29.2161 9.99883 28.345 7.69725 26.7198C8.16261 24.9887 9.18579 23.4594 10.6083 22.3688C12.0308 21.2781 13.7733 20.6869 15.5658 20.6868C17.3583 20.6867 19.1008 21.2777 20.5235 22.3682C21.9461 23.4587 22.9694 24.9879 23.435 26.7189C21.1332 28.3447 18.3836 29.2162 15.5655 29.213ZM11.4753 14.7212C11.4753 13.9122 11.7151 13.1214 12.1646 12.4487C12.614 11.7761 13.2528 11.2518 14.0002 10.9423C14.7476 10.6327 15.57 10.5517 16.3635 10.7095C17.1569 10.8673 17.8857 11.2569 18.4577 11.8289C19.0298 12.4009 19.4193 13.1298 19.5772 13.9232C19.735 14.7166 19.654 15.539 19.3444 16.2864C19.0348 17.0338 18.5106 17.6726 17.8379 18.1221C17.1653 18.5715 16.3745 18.8114 15.5655 18.8114C14.4811 18.8102 13.4414 18.3788 12.6746 17.612C11.9078 16.8452 11.4765 15.8056 11.4753 14.7212ZM24.998 25.4364C24.5087 24.0831 23.7345 22.8506 22.7277 21.8223C21.7209 20.7941 20.505 19.9941 19.1623 19.4764C20.1598 18.7224 20.8952 17.674 21.2645 16.4794C21.6338 15.2847 21.6184 14.0042 21.2203 12.8188C20.8223 11.6334 20.0617 10.603 19.0463 9.87337C18.0308 9.14371 16.8117 8.75161 15.5612 8.75251C14.3108 8.7534 13.0922 9.14723 12.0778 9.87834C11.0633 10.6095 10.3043 11.6409 9.90795 12.8268C9.51159 14.0128 9.49795 15.2933 9.86896 16.4875C10.24 17.6816 10.9769 18.729 11.9755 19.4815C10.6326 19.9989 9.41633 20.7985 8.40887 21.8262C7.40141 22.8539 6.62621 24.0858 6.13562 25.4388C4.15113 23.5533 2.77743 21.1161 2.19191 18.4421C1.60639 15.768 1.83594 12.9799 2.85091 10.4376C3.86589 7.89531 5.61968 5.71566 7.88584 4.18011C10.152 2.64456 12.8264 1.8236 15.5638 1.82326C18.3012 1.82291 20.9759 2.64319 23.2424 4.17818C25.509 5.71316 27.2633 7.89236 28.2789 10.4344C29.2945 12.9764 29.5248 15.7645 28.94 18.4387C28.3551 21.1129 26.982 23.5504 24.998 25.4364ZM57.4375 5.57603H45.6875C45.4389 5.57603 45.2004 5.6748 45.0246 5.85062C44.8488 6.02643 44.75 6.26489 44.75 6.51353C44.75 6.76217 44.8488 7.00063 45.0246 7.17644C45.2004 7.35226 45.4389 7.45103 45.6875 7.45103H57.4375C57.6861 7.45103 57.9246 7.35226 58.1004 7.17644C58.2762 7.00063 58.375 6.76217 58.375 6.51353C58.375 6.26489 58.2762 6.02643 58.1004 5.85062C57.9246 5.6748 57.6861 5.57603 57.4375 5.57603ZM61.1875 -0.0429688H41.9375C41.1918 -0.0421086 40.477 0.254484 39.9497 0.781743C39.4225 1.309 39.1259 2.02387 39.125 2.76953V13.5823L35.5902 16.612C35.4061 16.77 35.2747 16.9805 35.2137 17.2154C35.1528 17.4502 35.1653 17.6981 35.2495 17.9256C35.3337 18.1532 35.4856 18.3495 35.6847 18.4881C35.8838 18.6267 36.1206 18.701 36.3633 18.701H61.1875C61.9332 18.7002 62.648 18.4036 63.1753 17.8763C63.7025 17.3491 63.9991 16.6342 64 15.8885V2.76953C63.9991 2.02387 63.7025 1.309 63.1753 0.781743C62.648 0.254484 61.9332 -0.0421086 61.1875 -0.0429688ZM62.125 15.8885C62.1247 16.1371 62.0259 16.3754 61.8501 16.5512C61.6744 16.7269 61.4361 16.8258 61.1875 16.826H38.2217L40.6726 14.7253C40.7753 14.6373 40.8577 14.5281 40.9142 14.4052C40.9707 14.2824 41 14.1488 41 14.0135V2.76953C41.0003 2.52097 41.0991 2.28267 41.2749 2.10691C41.4506 1.93115 41.6889 1.8323 41.9375 1.83203H61.1875C61.4361 1.8323 61.6744 1.93115 61.8501 2.10691C62.0259 2.28267 62.1247 2.52097 62.125 2.76953V15.8885Z" fill="#FFCC01"/>
</g>
<defs>
<clipPath id="clip0_703_53555">
<rect width="64" height="64" fill="white"/>
</clipPath>
</defs>
</svg>
