<svg width="64" height="64" viewBox="0 0 64 64" fill="none" xmlns="http://www.w3.org/2000/svg">
<g id="Frame 1171278298">
<g id="Group 1171277133">
<path id="Vector 969" d="M61.1695 59.1393H2.70801L10.5234 31.8162H14.9542C16.3285 30.9341 19.5695 28.4316 21.5388 25.4777C24.0003 21.7854 28.1849 9.41618 37.6619 14.3393L38.4003 14.8315M38.4003 14.8315L48.6772 4.80078L53.7234 9.60078L45.9832 17.4777M38.4003 14.8315L24.9234 28.1854M36.308 27.3239L48.5542 26.0931M36.308 27.3239L24.9234 28.1854M36.308 27.3239L45.9832 17.4777M24.9234 28.1854L16.308 36.8008L14.0926 43.8162L21.1695 41.97L23.2682 39.8162M24.9234 28.1854C19.7049 33.1577 23.3644 36.2469 25.8465 37.17M61.0465 22.7085L45.9832 17.4777M25.8465 37.17L23.2682 39.8162M25.8465 37.17C27.7481 37.0742 30.329 37.0068 32.9849 37.0397M61.2311 42.6469C57.1723 42.3834 49.3388 41.4967 46.1542 39.8864M23.2682 39.8162C24.2302 40.9444 26.7819 42.93 29.2926 41.8469C29.5088 41.7537 29.7138 41.6494 29.908 41.5359M32.9849 37.0397C32.8162 38.0917 31.9691 40.3313 29.908 41.5359M32.9849 37.0397C34.954 37.0641 36.9643 37.1437 38.7695 37.3078M29.908 41.5359C30.6875 43.3421 33.2311 46.4869 37.1695 44.6162C38.352 44.0545 39.0685 43.3207 39.4623 42.5239M38.7695 37.3078C41.8315 37.5862 44.3037 38.1079 44.9849 39.0162C45.218 39.3269 45.6209 39.6168 46.1542 39.8864M38.7695 37.3078C39.5447 38.4671 40.3801 40.6666 39.4623 42.5239M39.4623 42.5239C40.9134 42.5502 44.2834 42.0596 46.1542 39.8864M13.7849 45.5392L11.8157 52.4931" stroke="#FFCC01" stroke-width="1.5"/>
<path id="Vector 970" d="M14.9549 31.8164C14.0113 33.2318 12.961 36.2103 16.3087 36.801" stroke="#FFCC01"/>
</g>
</g>
</svg>
